<svg version="1.1" xmlns="http://www.w3.org/2000/svg" viewBox="0 0 1336.0000000000002 1587.3333333333333" width="1336.0000000000002" height="1587.3333333333333">
  <!-- svg-source:excalidraw -->
  
  <defs>
    <style>
      @font-face {
        font-family: "Virgil";
        src: url("https://excalidraw.com/Virgil.woff2");
      }
      @font-face {
        font-family: "Cascadia";
        src: url("https://excalidraw.com/Cascadia.woff2");
      }
    </style>
  </defs>
  <rect x="0" y="0" width="1336.0000000000002" height="1587.3333333333333" fill="#ffffff"></rect><g transform="translate(241.77777777777783 1270.9444444444443) rotate(0 91.5 37.50000000000003)"><text x="0" y="18" font-family="Virgil, Segoe UI Emoji" font-size="20px" fill="#000000" text-anchor="start" style="white-space: pre;" direction="ltr">Limak's weight = a</text><text x="0" y="43" font-family="Virgil, Segoe UI Emoji" font-size="20px" fill="#000000" text-anchor="start" style="white-space: pre;" direction="ltr">Bob's Weight = b</text><text x="0" y="68" font-family="Virgil, Segoe UI Emoji" font-size="20px" fill="#000000" text-anchor="start" style="white-space: pre;" direction="ltr"></text></g><g transform="translate(230.77777777777783 1348.9444444444443) rotate(0 140 37.5)"><text x="0" y="18" font-family="Virgil, Segoe UI Emoji" font-size="20px" fill="#000000" text-anchor="start" style="white-space: pre;" direction="ltr">After every one year:</text><text x="0" y="43" font-family="Virgil, Segoe UI Emoji" font-size="20px" fill="#000000" text-anchor="start" style="white-space: pre;" direction="ltr">Limak's weight change = 3*a</text><text x="0" y="68" font-family="Virgil, Segoe UI Emoji" font-size="20px" fill="#000000" text-anchor="start" style="white-space: pre;" direction="ltr">Bob's weight change = 2*b</text></g><g transform="translate(782.7777777777778 1262.9444444444443) rotate(0 61.5 37.49999999999997)"><text x="0" y="18" font-family="Virgil, Segoe UI Emoji" font-size="20px" fill="#c92a2a" text-anchor="start" style="white-space: pre;" direction="ltr">Test Case 1</text><text x="0" y="43" font-family="Virgil, Segoe UI Emoji" font-size="20px" fill="#c92a2a" text-anchor="start" style="white-space: pre;" direction="ltr">a = 4</text><text x="0" y="68" font-family="Virgil, Segoe UI Emoji" font-size="20px" fill="#c92a2a" text-anchor="start" style="white-space: pre;" direction="ltr">b = 7</text></g><g transform="translate(243.44444444444457 1490.611111111111) rotate(0 373.5 12.5)"><text x="0" y="18" font-family="Virgil, Segoe UI Emoji" font-size="20px" fill="#000000" text-anchor="start" style="white-space: pre;" direction="ltr">To find how many years would it take to get Limak's weight &gt; Bob's weight</text></g><g transform="translate(768.7777777777779 1352.9444444444443) rotate(0 62.5 37.5)"><text x="0" y="18" font-family="Virgil, Segoe UI Emoji" font-size="20px" fill="#c92a2a" text-anchor="start" style="white-space: pre;" direction="ltr">1st YEAR:</text><text x="0" y="43" font-family="Virgil, Segoe UI Emoji" font-size="20px" fill="#c92a2a" text-anchor="start" style="white-space: pre;" direction="ltr">a = 3a = 12</text><text x="0" y="68" font-family="Virgil, Segoe UI Emoji" font-size="20px" fill="#c92a2a" text-anchor="start" style="white-space: pre;" direction="ltr">b = 2b = 14</text></g><g transform="translate(917.7777777777778 1352.611111111111) rotate(0 106 37.5)"><text x="0" y="18" font-family="Virgil, Segoe UI Emoji" font-size="20px" fill="#c92a2a" text-anchor="start" style="white-space: pre;" direction="ltr">2nd year</text><text x="0" y="43" font-family="Virgil, Segoe UI Emoji" font-size="20px" fill="#c92a2a" text-anchor="start" style="white-space: pre;" direction="ltr">a = 3a = 3(12) = 36</text><text x="0" y="68" font-family="Virgil, Segoe UI Emoji" font-size="20px" fill="#c92a2a" text-anchor="start" style="white-space: pre;" direction="ltr">b = 2b = 2(14) = 28</text></g><g transform="translate(1174.7777777777778 1360.9444444444443) rotate(0 55.5 25)"><text x="0" y="18" font-family="Virgil, Segoe UI Emoji" font-size="20px" fill="#c92a2a" text-anchor="start" style="white-space: pre;" direction="ltr">On2nd year</text><text x="0" y="43" font-family="Virgil, Segoe UI Emoji" font-size="20px" fill="#c92a2a" text-anchor="start" style="white-space: pre;" direction="ltr">a&gt;b</text></g><g stroke-linecap="round" transform="translate(1163.7777777777778 1346.9444444444443) rotate(0 68.5 37)"><path d="M1.17 -0.88 C47.89 0.14, 99.99 -2.11, 138.83 -1.67 M-0.18 0.47 C40.01 0.16, 79.16 -0.94, 137.72 -0.61 M137.67 0.25 C137.28 24.83, 137.35 47.74, 137.13 73.92 M137.61 0.16 C136.74 22.86, 138.07 47.06, 136.87 73.73 M136 74.59 C100.48 75.33, 61.34 75.53, -1.22 74.1 M137.1 73.45 C105.2 74.74, 74.01 73.17, -0.65 74.56 M-1.75 73.21 C-2 54.14, -0.39 34.88, -1.82 0.02 M-0.68 73.24 C0.43 58.95, 0.58 41.37, 0.51 -0.01" stroke="#c92a2a" stroke-width="1" fill="none"></path></g><g transform="translate(1154.111111111111 1459.2777777777778) rotate(0 37.5 25)"><text x="0" y="18" font-family="Virgil, Segoe UI Emoji" font-size="20px" fill="#5c940d" text-anchor="start" style="white-space: pre;" direction="ltr">Output:</text><text x="0" y="43" font-family="Virgil, Segoe UI Emoji" font-size="20px" fill="#5c940d" text-anchor="start" style="white-space: pre;" direction="ltr">2</text></g><g stroke-linecap="round" transform="translate(1128.777777777778 1441.0555555555554) rotate(0 58.16666666666674 49.16666666666663)"><path d="M80.17 4.4 C89.02 7.07, 98.23 13.83, 104.37 20.35 C110.52 26.87, 115.88 35.31, 117.04 43.52 C118.19 51.72, 115.56 61.92, 111.28 69.59 C106.99 77.26, 99.68 84.87, 91.33 89.56 C82.97 94.25, 71.05 97.12, 61.16 97.71 C51.27 98.3, 40.68 97.02, 31.99 93.1 C23.3 89.18, 14.33 81.31, 9.01 74.18 C3.68 67.05, 0.4 58.62, 0.05 50.29 C-0.31 41.97, 1.96 31.58, 6.89 24.2 C11.82 16.83, 20.72 10.2, 29.61 6.06 C38.51 1.91, 50.76 -0.64, 60.27 -0.68 C69.78 -0.73, 81.53 4.16, 86.67 5.78 C91.81 7.4, 91.69 8.15, 91.14 9.05 M83.36 3.82 C92.4 6.58, 101.7 13.2, 107.2 20.49 C112.69 27.77, 115.67 39.01, 116.32 47.51 C116.97 56.02, 115.72 64.14, 111.07 71.51 C106.42 78.89, 97.04 87.55, 88.42 91.78 C79.79 96, 69.23 96.88, 59.33 96.88 C49.44 96.88, 37.84 95.76, 29.07 91.77 C20.29 87.79, 11.59 80.34, 6.67 72.99 C1.76 65.64, -0.76 56.22, -0.41 47.68 C-0.06 39.14, 3.54 28.78, 8.8 21.75 C14.06 14.71, 22.12 8.92, 31.16 5.48 C40.19 2.03, 54.54 1.15, 63.01 1.11 C71.48 1.06, 78.88 4.35, 81.95 5.21 C85.03 6.06, 81.43 5.68, 81.45 6.25" stroke="#5c940d" stroke-width="1" fill="none"></path></g><g transform="translate(724.9999999999999 670.7222222222222) rotate(0 240.50000000000006 12.5)"><text x="0" y="18" font-family="Virgil, Segoe UI Emoji" font-size="20px" fill="#000000" text-anchor="start" style="white-space: pre;" direction="ltr">Suppose NO =  512  and no of subtractions = 4</text></g><g transform="translate(293.3333333333334 764.0555555555554) rotate(0 186.66666666666666 40)"><text x="0" y="18.666666666666668" font-family="Virgil, Segoe UI Emoji" font-size="21.33333333333333px" fill="#000000" text-anchor="start" style="white-space: pre;" direction="ltr">According to problem:</text><text x="0" y="45.333333333333336" font-family="Virgil, Segoe UI Emoji" font-size="21.33333333333333px" fill="#000000" text-anchor="start" style="white-space: pre;" direction="ltr">if unit digit is non-zero, subtract 1.</text><text x="0" y="72" font-family="Virgil, Segoe UI Emoji" font-size="21.33333333333333px" fill="#000000" text-anchor="start" style="white-space: pre;" direction="ltr">if unit digit is zero, divide by 10</text></g><g transform="translate(774.6666666666667 727.7222222222221) rotate(0 216.5 150)"><text x="0" y="18" font-family="Virgil, Segoe UI Emoji" font-size="20px" fill="#862e9c" text-anchor="start" style="white-space: pre;" direction="ltr">Therefore from the testcase:</text><text x="0" y="43" font-family="Virgil, Segoe UI Emoji" font-size="20px" fill="#862e9c" text-anchor="start" style="white-space: pre;" direction="ltr">1st operation : 512 (has non zero unit digit)</text><text x="0" y="68" font-family="Virgil, Segoe UI Emoji" font-size="20px" fill="#862e9c" text-anchor="start" style="white-space: pre;" direction="ltr">               : 512-1 = 511</text><text x="0" y="93" font-family="Virgil, Segoe UI Emoji" font-size="20px" fill="#862e9c" text-anchor="start" style="white-space: pre;" direction="ltr"></text><text x="0" y="118" font-family="Virgil, Segoe UI Emoji" font-size="20px" fill="#862e9c" text-anchor="start" style="white-space: pre;" direction="ltr">2nd operation : 511 (has non zero unit digit)</text><text x="0" y="143" font-family="Virgil, Segoe UI Emoji" font-size="20px" fill="#862e9c" text-anchor="start" style="white-space: pre;" direction="ltr">               : 511-1 = 510</text><text x="0" y="168" font-family="Virgil, Segoe UI Emoji" font-size="20px" fill="#862e9c" text-anchor="start" style="white-space: pre;" direction="ltr"></text><text x="0" y="193" font-family="Virgil, Segoe UI Emoji" font-size="20px" fill="#862e9c" text-anchor="start" style="white-space: pre;" direction="ltr">3rd operation : 510 (has zero unit digit)</text><text x="0" y="218" font-family="Virgil, Segoe UI Emoji" font-size="20px" fill="#862e9c" text-anchor="start" style="white-space: pre;" direction="ltr">               : 510/10 = 51</text><text x="0" y="243" font-family="Virgil, Segoe UI Emoji" font-size="20px" fill="#862e9c" text-anchor="start" style="white-space: pre;" direction="ltr"></text><text x="0" y="268" font-family="Virgil, Segoe UI Emoji" font-size="20px" fill="#862e9c" text-anchor="start" style="white-space: pre;" direction="ltr">4th operation : 51(has non zero unit digit)</text><text x="0" y="293" font-family="Virgil, Segoe UI Emoji" font-size="20px" fill="#862e9c" text-anchor="start" style="white-space: pre;" direction="ltr">               : 51 - 1 = 50</text></g><g stroke-linecap="round" transform="translate(1016.6666666666667 998.7222222222221) rotate(0 30.5 20.5)"><path d="M-0.62 0.46 C19.86 1.57, 42.34 0.04, 62.75 -0.69 M0.58 -0.04 C12.98 1.26, 26.53 -0.15, 60.9 0.59 M62.45 -1.37 C61.33 10.19, 62.2 21.63, 59.27 39.7 M62 -1 C60.74 12.89, 60.33 25.26, 60.46 40.8 M59.91 42.87 C39.54 39.29, 14.28 41.78, 0.1 39.94 M61.14 41.78 C37.38 42.08, 16.16 40.51, 0 41.76 M-1.63 41.5 C-1.13 27.57, 1.66 9.02, -1.08 -0.7 M-0.44 42 C-0.06 32.57, -0.71 22.96, 0.36 0.36" stroke="#862e9c" stroke-width="1" fill="none"></path></g><g transform="translate(794.6666666666667 704.7222222222221) rotate(0 -31 132)" stroke="none" fill="#862e9c"><path d="M 0.8983710160737244 3.513960342900713 Q 0.8983710160737244 3.513960342900713 -0.7878643343651371 5.435775618872957 -2.4740996848039987 7.357590894845201 -0.7878643343651371 5.435775618872957 0.8983710160737244 3.513960342900713 -0.7878643343651371 5.435775618872957 -2.4740996848039987 7.357590894845201 -5.003468369215661 10.66990661852485 -7.532837053627324 13.9822223422045 -10.332015932661541 18.567780701850868 -13.131194811695757 23.153339061497235 -16.055157437535502 28.42403484952863 -18.979120063375248 33.69473063756003 -23.111623245651458 40.214273469974046 -27.244126427927664 46.733816302388064 -31.184548134403123 52.67675333861514 -35.12496984087858 58.61969037484223 -37.68534162299213 62.888722772138465 -40.24571340510568 67.1577551694347 -42.46428057430481 71.28863869572794 -44.682847743503935 75.41952222202117 -46.06359558301054 78.571974899606 -47.44434342251715 81.72442757719085 -48.84141203402939 84.52358088643092 -50.23848064554163 87.32273419567099 -51.30412930609157 90.10631688788808 -52.36977796664151 92.8898995801052 -53.393211846531386 95.56920093874629 -54.41664572642126 98.24850229738738 -55.314187984532694 101.1230765573356 -56.21173024264413 103.99765081728383 -56.69834385851101 106.88053658121113 -57.18495747437788 109.76342234513844 -57.49245087497981 112.88986516570861 -57.79994427558173 116.01630798627878 -58.543198693276224 120.16086478047686 -59.286453110970726 124.30542157467494 -59.7419082857297 129.0079276115599 -60.197363460488674 133.71043364844485 -60.31031783176687 137.76111677804462 -60.42327220304505 141.8117999076444 -60.451969477057006 146.6625905002091 -60.480666751068966 151.5133810927738 -60.301302766451116 157.39605111750845 -60.121938781833265 163.27872114224309 -59.42364586584163 170.22760668144065 -58.72535294984999 177.1764922206382 -57.994518807844344 181.9826453973385 -57.26368466583869 186.7887985740388 -55.89292241897168 190.96915148282596 -54.52216017210467 195.14950439161314 -52.627663089403946 198.54145118029913 -50.73316600670322 201.93339796898516 -48.67052763639191 205.31312694400788 -46.60788926608059 208.6928559190306 -45.249077934847975 210.84989185203065 -43.89026660361536 213.0069277850307 -42.500757597889624 215.45417403913984 -41.11124859216389 217.90142029324895 -40.04309922250396 220.13838785156395 -38.974949852844034 222.37535540987895 -38.20343112295976 223.8248694610583 -37.43191239307549 225.2743835122377 -36.60038913672925 227.1909897176551 -35.768865880383 229.1075959230725 -34.768354109702685 230.88399805845387 -33.767842339022366 232.66040019383524 -33.38215179145311 234.23252280400945 -32.99646124388385 235.80464541418365 -32.04056033775008 237.1642072287408 -31.08465943161631 238.52376904329793 -30.274297654935953 240.1685285548507 -29.463935878255597 241.81328806640346 -28.545859951362992 243.52492488182287 -27.627784024470387 245.23656169724228 -26.669845820279313 247.47030989291693 -25.711907616088244 249.70405808859155 -24.721712590373727 251.73659181946914 -23.73151756465921 253.76912555034673 -22.426134374868084 255.94550305992192 -21.120751185076955 258.1218805694971 -19.521710374199934 259.84837993012246 -17.922669563322913 261.57487929074784 -17.191156793717568 262.5314746768763 -16.459644024112222 263.48807006300484 -16.803573530393194 264.6421489855952 -17.147503036674163 265.79622790818553 -18.283329189519883 266.1963336634175 -19.419155342365602 266.59643941864937 -20.41046955970625 265.9127130206243 -21.4017837770469 265.2289866225993 -21.43131737888256 264.02511228064304 -21.460850980718217 262.82123793868675 -20.504255594589722 262.0897251690814 -19.54766020846123 261.3582123994761 -18.39358128587087 261.70214190575706 -17.239502363280508 262.04607141203803 -16.839396608048595 263.18189756488374 -16.439290852816686 264.31772371772945 -17.12301725084173 265.30903793507014 -17.806743648866775 266.30035215241077 -19.010617990823032 266.32988575424645 -20.21449233277929 266.35941935608207 -21.274497656145094 265.3207428039654 -22.334502979510898 264.28206625184873 -23.74307528487836 262.4378900762262 -25.15164759024582 260.5937139006037 -26.659645469078622 258.3540874751152 -28.167643347911426 256.1144610496267 -29.276189691052863 254.22237468046438 -30.384736034194297 252.33028831130207 -31.71452031400754 249.6389028320312 -33.04430459382078 246.9475173527603 -34.07708594083478 244.58479356428677 -35.109867287848765 242.22206977581325 -36.05825586206322 240.48225398096608 -37.00664443627767 238.7424381861189 -37.45676024825623 236.60881675763522 -37.906876060234794 234.47519532915155 -38.82592684804803 232.40528997092025 -39.74497763586127 230.33538461268893 -40.3230818086959 228.53919925628745 -40.901185981530546 226.74301389988597 -41.37931481355534 225.21862406925095 -41.857443645580126 223.69423423861593 -42.78788452355644 221.53558626967322 -43.718325401532766 219.37693830073053 -45.07317738635204 216.99172244580882 -46.42802937117132 214.60650659088708 -47.79666200211874 212.43369408776377 -49.165294633066146 210.26088158464046 -51.262432111474936 206.82121681516975 -53.35956958988372 203.38155204569904 -55.35417590206341 199.74592385641125 -57.3487822142431 196.11029566712347 -58.784433546897745 191.68034866401553 -60.22008487955238 187.2504016609076 -60.964905055633324 182.36535519002754 -61.70972523171427 177.48030871914747 -62.41404958806905 170.4143956680236 -63.11837394442382 163.3484826168997 -63.2994790491916 157.42195828034852 -63.480584153959384 151.49543394379734 -63.45115778551387 146.60944709121878 -63.42173141706835 141.7234602386402 -63.30219121851664 137.57703358766688 -63.182651019964936 133.43060693669355 -62.708127915404326 128.5946738512861 -62.233604810843715 123.75874076587866 -61.50694611125988 119.74954107090713 -60.780287411676035 115.7403413759356 -60.4581283431646 112.50175823982732 -60.13596927465318 109.26317510371906 -59.60397301406664 106.18595704093262 -59.07197675348011 103.10873897814618 -58.1450795057779 100.14289793123942 -57.21818225807569 97.17705688433264 -56.19385811471099 94.49469701555375 -55.1695339713463 91.81233714677488 -54.04415053887794 88.8992749293121 -52.91876710640959 85.9862127118493 -51.551707345848655 83.24878638236981 -50.18464758528772 80.51136005289032 -48.75888193650164 77.26749417559694 -47.33311628771555 74.02362829830354 -45.0756295037439 69.81923760508384 -42.81814271977225 65.61484691186415 -40.2242986892027 61.29278243110862 -37.63045465863314 56.970717950353084 -33.704013114376174 51.04926747437314 -29.77757157011921 45.127816998393186 -25.69262174946573 38.68980978197908 -21.607671928812252 32.25180256556497 -18.661822542933248 26.94229815828387 -15.715973157054243 21.632793751002765 -13.035903989213459 16.897551329399132 -10.355834821372676 12.1623089077955 -8.21821131828434 8.19142150647515 -6.080587815196001 4.220534105154799 -4.848854415634863 2.509536881127043 -3.617121016073724 0.7985396570992868 -2.937433516073724 -0.2795853429007131 -2.257746016073724 -1.357710342900713 -1.6431293978088521 -1.8915954477081236 -1.0285127795439803 -2.425480552515534 -0.217467699318022 -2.4961400913184146 0.5935773809079363 -2.5667996301212956 1.2912592688570506 -2.147244060726338 1.9889411568061646 -1.7276884913313801 2.306769084617068 -0.9781737810781433 2.6245970124279716 -0.22865907082490655 1.7614840142508479 1.6426506360379034 Z"></path></g><g transform="translate(777.6666666666667 947.7222222222221) rotate(0 -8.5 11)" stroke="none" fill="#862e9c"><path d="M 1.959916525516106 -1.985128792710706 Q 1.959916525516106 -1.985128792710706 3.4051725661205174 -0.7063615849507947 4.850428606724929 0.5724056228091166 3.4051725661205174 -0.7063615849507947 1.959916525516106 -1.985128792710706 3.4051725661205174 -0.7063615849507947 4.850428606724929 0.5724056228091166 5.748433809849826 3.2195716680538693 6.646439012974723 5.8667377132986225 6.7389817960040075 9.796065545028956 6.831524579033292 13.725393376759289 7.2113226893986475 16.418814003312917 7.591120799764003 19.11223462986655 7.234481943192115 21.194873924040884 6.877843086620228 23.27751321821522 4.611554668401871 23.806544710876324 2.3452662501835135 24.335576203537425 0.7161257170310215 24.372644873802457 -0.9130148161214706 24.409713544067486 -2.727151012102753 24.416902751150218 -4.541287208084036 24.424091958232946 -6.119491537022933 24.446870217582905 -7.69769586596183 24.46964847693286 -9.299806130890964 24.505420720429072 -10.901916395820098 24.541192963925283 -12.778313672207393 24.613621493686523 -14.654710948594689 24.68605002344776 -16.529736027002834 24.7296640888772 -18.404761105410977 24.773278154306638 -21.098206173598523 24.788382223763954 -23.79165124178607 24.803486293221273 -24.92568526984678 24.225667097047236 -26.059719297907495 23.647847900873202 -26.258822225818545 22.39076149797002 -26.457925153729594 21.133675095066838 -25.557950655097613 20.233700594273106 -24.657976156465633 19.333726093479374 -23.400889753084204 19.532829018370883 -22.143803349702775 19.73193194326239 -21.565984150804773 20.865965969935168 -20.988164951906768 21.99999999660795 -21.5659841480808 23.134034024668665 -22.143803344254838 24.268068052729376 -23.40088974715802 24.467170980640425 -24.657976150061202 24.666273908551474 -25.557950650854934 23.766299409919498 -26.457925151648666 22.866324911287517 -26.25882222675716 21.609238507906085 -26.059719301865652 20.352152104524656 -24.925685275192876 19.77433290562665 -23.791651248520097 19.19651370672865 -21.098206329732275 19.211617756880493 -18.404761410944452 19.226721807032334 -16.529745754548607 19.270334654639385 -14.654730098152763 19.31394750224644 -12.77852034708479 19.38629809137491 -10.902310596016815 19.458648680503387 -9.300796632406538 19.494158775786957 -7.699282668796261 19.529668871070527 -6.122954799872295 19.551423152425564 -4.546626930948328 19.573177433780604 -2.7426343354781566 19.576270728883657 -0.938641740007985 19.579364023986713 1.6706941511421527 19.814405119076635 4.280030042292291 20.049446214166558 4.3567684640375814 19.448952471837504 4.433506885782872 18.84845872950845 3.85836420024979 16.442392051374583 3.283221514716707 14.036325373240711 2.7978834383709925 10.858231329971044 2.3125453620252774 7.6801372867013775 1.5288746567213949 5.529414770638137 0.7452039514175123 3.3786922545748976 0.06892383218410775 3.0303013891088497 -0.6073562870492968 2.681910523642802 -1.3375526493389347 2.247313323124076 -2.067749011628573 1.8127161226053503 -2.4030404527991545 1.0319209486464636 -2.7383318939697356 0.2511257746875766 -2.5506484796310342 -0.5776301545110637 -2.362965065292333 -1.406386083709704 -1.7239954805971032 -1.9665461715722177 -1.0850258959018735 -2.5267062594347314 0.43744531480711624 -2.255917526072719 Z"></path></g><g transform="translate(1041.6666666666667 1060.7222222222222) rotate(0 60 -36.500000000000014)" stroke="none" fill="#862e9c"><path d="M 2.6564770434549354 -2.060468954761314 Q 2.6564770434549354 -2.060468954761314 4.291466648708209 -1.2326639354756252 5.926456253961483 -0.4048589161899363 4.291466648708209 -1.2326639354756252 2.6564770434549354 -2.060468954761314 4.291466648708209 -1.2326639354756252 5.926456253961483 -0.4048589161899363 8.289392693566338 -0.4119709748281293 10.652329133171193 -0.41908303346632225 17.021528996000164 -3.6151451594265946 23.39072885882914 -6.811207285386867 38.39467408165753 -16.875774179804463 53.39861930448592 -26.940341074222058 71.86551319813871 -39.6117336325713 90.33240709179151 -52.28312619092054 101.10993209748472 -60.77568827156046 111.88745710317794 -69.26825035220038 115.21218606893721 -72.92593086367499 118.53691503469649 -76.5836113751496 119.20692867675345 -76.70536239415367 119.87694231881042 -76.82711341315773 120.36926509990303 -76.35662444369277 120.86158788099563 -75.88613547422779 120.77033437912635 -75.21129149998814 120.67908087725709 -74.5364475257485 120.07948317092689 -74.21360982390046 119.47988546459669 -73.89077212205241 118.8662695882874 -74.1860976162315 118.25265371197808 -74.4814231104106 118.13090269297402 -75.15143675246756 118.00915167396995 -75.82145039452453 118.47964064343492 -76.31377317561714 118.9501296128999 -76.80609595670974 119.62497358713955 -76.71484245484048 120.29981756137919 -76.62358895297122 120.62265526322723 -76.023991246641 120.94549296507527 -75.4243935403108 120.65016747089618 -74.8107776640015 120.35484197671708 -74.1971617876922 117.0301130109578 -70.53948127621759 113.70538404519853 -66.88180076474298 102.87217077345645 -58.34943952079794 92.03895750171435 -49.8170782768529 73.56289828562593 -37.13877753686229 55.08683906953752 -24.460476796871692 40.06897185340107 -14.126270497929912 25.05110463726461 -3.7920641989881334 18.72405043955638 0.33281543733803076 12.396996241848145 4.457695073664195 9.407932207129141 4.85111112865477 6.418868172410138 5.244527183645344 4.271553499253741 4.213746017796016 2.1242388260973453 3.1829648519466867 0.9290598587092751 2.9023408776503437 -0.26611910867879507 2.6217169033540006 -1.0112102608026132 2.2931547725864174 -1.7563014129264314 1.9645926418188346 -2.1659688424260333 1.2608267034878282 -2.575636271925635 0.5570607651568217 -2.4934009448159737 -0.2530943124196264 -2.4111656177063123 -1.0632493899960744 -1.8684386338673131 -1.670341903342068 -1.3257116500283141 -2.2774344166880613 0.6653826967133106 -2.1689516857246876 Z"></path></g><g transform="translate(624 431.611111111111) rotate(0 0 0)" stroke="none" fill="#862e9c"><path d="M NaN NaN Q NaN NaN NaN NaN NaN NaN NaN NaN NaN NaN NaN NaN NaN NaN NaN NaN NaN NaN NaN NaN NaN NaN NaN NaN NaN NaN NaN NaN NaN NaN NaN NaN NaN NaN NaN NaN NaN NaN NaN NaN NaN NaN NaN NaN NaN NaN NaN NaN Z"></path></g><g transform="translate(65 199.61111111111097) rotate(0 58.5 17.5)"><text x="0" y="25" font-family="Virgil, Segoe UI Emoji" font-size="28px" fill="#862e9c" text-anchor="start" style="white-space: pre;" direction="ltr">Elephant</text></g><g transform="translate(698 195.11111111111097) rotate(0 38 17.5)"><text x="0" y="25" font-family="Virgil, Segoe UI Emoji" font-size="28px" fill="#862e9c" text-anchor="start" style="white-space: pre;" direction="ltr">friend</text></g><g stroke-linecap="round"><g transform="translate(200 210.61111111111097) rotate(0 234.87790648713707 1.5518549115443534)"><path d="M-1.15 0.95 C77.32 1.57, 392.25 2.46, 470.91 2.69 M0.44 0.41 C78.84 0.77, 392.1 0.97, 470.44 0.93" stroke="#862e9c" stroke-width="1" fill="none"></path></g><g transform="translate(200 210.61111111111097) rotate(0 234.87790648713707 1.5518549115443534)"><path d="M443.84 12.71 C452.05 9.71, 460.05 5.74, 472.42 0.84 M441.41 12.04 C453.53 8.14, 463.27 2.84, 471.44 1.14" stroke="#862e9c" stroke-width="1" fill="none"></path></g><g transform="translate(200 210.61111111111097) rotate(0 234.87790648713707 1.5518549115443534)"><path d="M443.84 -7.82 C451.88 -4.58, 459.88 -2.32, 472.42 0.84 M441.42 -8.48 C453.61 -4.39, 463.34 -1.69, 471.44 1.14" stroke="#862e9c" stroke-width="1" fill="none"></path></g></g><g transform="translate(271 149.11111111111097) rotate(0 148 25)"><text x="0" y="18" font-family="Virgil, Segoe UI Emoji" font-size="20px" fill="#862e9c" text-anchor="start" style="white-space: pre;" direction="ltr">Can only take 1, 2, 3, 4 or 5</text><text x="0" y="43" font-family="Virgil, Segoe UI Emoji" font-size="20px" fill="#862e9c" text-anchor="start" style="white-space: pre;" direction="ltr">            position each time</text></g><g transform="translate(109 158.61111111111097) rotate(0 9.5 17.5)"><text x="0" y="25" font-family="Virgil, Segoe UI Emoji" font-size="28px" fill="#c92a2a" text-anchor="start" style="white-space: pre;" direction="ltr">0</text></g><g transform="translate(725 152.11111111111097) rotate(0 8.5 17.5)"><text x="0" y="25" font-family="Virgil, Segoe UI Emoji" font-size="28px" fill="#c92a2a" text-anchor="start" style="white-space: pre;" direction="ltr">X</text></g><g transform="translate(71 277.111111111111) rotate(0 352.5 25)"><text x="0" y="18" font-family="Virgil, Segoe UI Emoji" font-size="20px" fill="#000000" text-anchor="start" style="white-space: pre;" direction="ltr">Test Case 1:  5</text><text x="0" y="43" font-family="Virgil, Segoe UI Emoji" font-size="20px" fill="#000000" text-anchor="start" style="white-space: pre;" direction="ltr">Output : 1 because elephant can directly travel 5 position in one step </text></g><g transform="translate(69 363.611111111111) rotate(0 280.5 25)"><text x="0" y="18" font-family="Virgil, Segoe UI Emoji" font-size="20px" fill="#e67700" text-anchor="start" style="white-space: pre;" direction="ltr">Test Case 2: 12</text><text x="0" y="43" font-family="Virgil, Segoe UI Emoji" font-size="20px" fill="#e67700" text-anchor="start" style="white-space: pre;" direction="ltr">Output: 3 because he can take 5, 5, 2, i.e. 5+5+2 = 12</text></g><g stroke-linecap="round" transform="translate(10 67.49999999999989) rotate(0 656.3333333333333 190.55555555555554)"><path d="M0.74 -0.8 C423.38 -0.14, 847.1 1, 1313.12 0.3 M-0.34 -0.13 C475.18 0.42, 950.81 -0.21, 1312.98 -0.36 M1313.8 -0.86 C1311.33 117.43, 1311.8 235.64, 1313.45 381.44 M1312.72 -0.47 C1312.68 96.6, 1311.9 193.45, 1313.16 380.78 M1313.45 381 C858.65 378.31, 404.67 379.08, -0.01 380.4 M1312.45 381.37 C817.33 383.48, 321.86 383.12, -0.08 381.48 M-0.67 381.65 C-0.14 294.51, -0.12 207.72, -0.34 -0.83 M-0.28 380.83 C0.34 261.8, 0.25 142.89, 0.57 -0.48" stroke="#364fc7" stroke-width="1" fill="none"></path></g><g transform="translate(952.6666666666665 128.8888888888889) rotate(0 122 37.5)"><text x="0" y="18" font-family="Virgil, Segoe UI Emoji" font-size="20px" fill="#364fc7" text-anchor="start" style="white-space: pre;" direction="ltr">Let, Epos = 0 and x =8</text><text x="0" y="43" font-family="Virgil, Segoe UI Emoji" font-size="20px" fill="#364fc7" text-anchor="start" style="white-space: pre;" direction="ltr"></text><text x="0" y="68" font-family="Virgil, Segoe UI Emoji" font-size="20px" fill="#364fc7" text-anchor="start" style="white-space: pre;" direction="ltr"></text></g><g transform="translate(951.0000000000001 191.66666666666663) rotate(0 164.99999999999994 37.5)"><text x="0" y="18" font-family="Virgil, Segoe UI Emoji" font-size="20px" fill="#364fc7" text-anchor="start" style="white-space: pre;" direction="ltr">Then, x - Epos = 8 which is &gt;= 5</text><text x="0" y="43" font-family="Virgil, Segoe UI Emoji" font-size="20px" fill="#364fc7" text-anchor="start" style="white-space: pre;" direction="ltr">  =&gt;  Epos + 5</text><text x="0" y="68" font-family="Virgil, Segoe UI Emoji" font-size="20px" fill="#364fc7" text-anchor="start" style="white-space: pre;" direction="ltr"> Epos = 5</text></g><g transform="translate(955.4444444444446 305.55555555555543) rotate(0 125 25)"><text x="0" y="18" font-family="Virgil, Segoe UI Emoji" font-size="20px" fill="#a61e4d" text-anchor="start" style="white-space: pre;" direction="ltr">Now, x-Epos = 8 - 5 = 3</text><text x="0" y="43" font-family="Virgil, Segoe UI Emoji" font-size="20px" fill="#a61e4d" text-anchor="start" style="white-space: pre;" direction="ltr">   =&gt; Epos = 3</text></g><g stroke-linecap="round" transform="translate(229.88888888888903 650.6666666666665) rotate(0 524.4444444444446 225.55555555555554)"><path d="M0.44 0.01 C337.83 0.11, 674.32 1.28, 1049.25 0.54 M-0.07 0.26 C289.75 -0.22, 579.66 0.22, 1048.74 0.17 M1048.56 -0.04 C1049.23 170.85, 1047.91 342.46, 1049.74 450.78 M1048.78 0.4 C1051.31 118.18, 1050.92 237, 1048.7 450.98 M1049.51 451.47 C818.67 455.01, 588.99 454.6, -0.3 450.74 M1048.75 451.45 C663.3 450, 277.62 449.94, -0.26 450.9 M0.26 451.97 C0.41 337.6, -1.08 225.01, 0.66 -0.87 M-0.31 450.98 C-1.65 324.84, -1.49 197.89, 0.45 0.47" stroke="#a61e4d" stroke-width="1" fill="none"></path></g><g stroke-linecap="round" transform="translate(206.00000000000023 1175.1111111111109) rotate(0 560 201.11111111111117)"><path d="M0.4 0.2 C361.46 -1.25, 723.04 -0.53, 1120.53 -0.32 M-0.31 -0.14 C430.11 -3.48, 859.79 -3.28, 1119.98 -0.32 M1120.77 0.93 C1117.84 116.14, 1118.59 230.17, 1120.22 401.75 M1119.46 -0.17 C1121.04 130.85, 1121.5 262.71, 1119.52 402.05 M1119.67 402.82 C804.1 400.22, 490.16 400.3, -0.07 401.53 M1119.84 402.2 C769.52 404.95, 418.9 404.32, -0.16 402.55 M0.34 402.75 C-0.47 316.42, -1.61 230.86, -0.7 0.3 M0.1 402.1 C-1.07 290.82, -1.88 178.02, 0.56 -0.55" stroke="#364fc7" stroke-width="1" fill="none"></path></g><g transform="translate(492.1111111111112 10) rotate(0 175 22.5)"><text x="0" y="32" font-family="Virgil, Segoe UI Emoji" font-size="36px" fill="#364fc7" text-anchor="start" style="white-space: pre;" direction="ltr">DAY 35 CodeForces</text></g><g transform="translate(53.22222222222223 86.88888888888891) rotate(0 202 17.5)"><text x="0" y="25" font-family="Virgil, Segoe UI Emoji" font-size="28px" fill="#a61e4d" text-anchor="start" style="white-space: pre;" direction="ltr">Explanation of 617A Elephant</text></g><g stroke-linecap="round" transform="translate(42.666666666666785 69.83333333333337) rotate(0 210.83333333333334 30)"><path d="M-0.35 -0.78 C114.82 0.56, 231.4 -0.42, 422.09 -0.34 M-0.26 0.41 C106.58 -0.01, 214.43 -0.66, 421.24 -0.18 M421.63 -1.44 C422.11 11.33, 422.02 26.39, 421.24 59.94 M422.11 -0.13 C420.67 20.68, 420.72 40.03, 420.99 60.01 M420.95 59.33 C253.41 59.11, 86.86 60.6, -0.09 60 M421.81 59.89 C330.8 58.59, 238.63 58.89, 0.49 60.48 M-0.32 58.02 C1.7 45.97, -1.51 35.08, 1.32 1.93 M0.09 59.88 C0.08 45.54, 1.06 30.25, 1 0.76" stroke="#a61e4d" stroke-width="4" fill="none"></path></g><g stroke-linecap="round" transform="translate(242.6666666666669 1043.1666666666667) rotate(0 288.33333333333337 24.16666666666667)"><path d="M0.4 -0.07 C119.61 -0.13, 238.5 0.06, 576.89 -0.16 M0.16 0.37 C229.07 0.89, 457.51 1.54, 576.6 -0.4 M577.89 1.32 C578.37 17.82, 575.76 37.99, 576.84 48.09 M576.34 1 C577.55 14.2, 576.16 28.6, 576.3 48.77 M576.94 48.36 C461.04 47.58, 346.06 46.41, 0.35 48.12 M576.56 48.67 C352.35 46.75, 127.34 46.35, -0.24 48.73 M-0.43 50.09 C1.54 37.81, 1.12 26.81, -0.7 -0.01 M0.03 48.67 C-0.2 36.88, 0.5 24.74, -0.79 -0.58" stroke="#000000" stroke-width="4" fill="none"></path></g><g stroke-linecap="round" transform="translate(221.00000000000028 1179.8333333333333) rotate(0 310 30.833333333333343)"><path d="M0.27 0.35 C247.09 1.93, 496.11 1, 619.45 -0.23 M-0.36 0.38 C133.06 0.32, 266.86 0.34, 620.13 0.11 M619.59 -0.78 C619.84 21.22, 620.82 41.08, 618.83 60.89 M620.39 0.28 C618.91 12.07, 618.99 23.83, 620.38 61.37 M619.56 62.13 C485.13 61.19, 348.88 62.24, -0.23 61.46 M619.62 61.62 C444.79 60.94, 269.55 61.18, 0.01 61.41 M-1.91 61.46 C0.04 41.47, 0.81 24.61, -0.1 1.41 M-0.03 62.46 C-0.03 45, -0.42 29.91, -0.99 0.86" stroke="#862e9c" stroke-width="4" fill="none"></path></g><g transform="translate(264.33333333333354 1050.666666666667) rotate(0 270.5 17.499999999999986)"><text x="0" y="25" font-family="Virgil, Segoe UI Emoji" font-size="28px" fill="#862e9c" text-anchor="start" style="white-space: pre;" direction="ltr">Explanation of Wrong Subtraction 977A</text></g><g transform="translate(236.00000000000023 1194.0000000000002) rotate(0 307.5 17.5)"><text x="0" y="25" font-family="Virgil, Segoe UI Emoji" font-size="28px" fill="#a61e4d" text-anchor="start" style="white-space: pre;" direction="ltr">Explanation of Bear and Big Brother 791A  </text></g><g stroke-linecap="round"><g transform="translate(861.0000000000001 103.16666666666674) rotate(0 -0.6502968019091782 140.1164083751384)"><path d="M-1.17 0.85 C-1.37 47.32, -0.91 232.37, -1.08 278.98 M0.42 0.26 C0.09 46.82, -1.12 233.62, -1.72 279.98" stroke="#a61e4d" stroke-width="4" fill="none"></path></g></g><g stroke-linecap="round"><g transform="translate(1282.666666666667 1429.8333333333335) rotate(0 -16.488565301482367 25.624332150056375)"><path d="M-0.82 0.05 C-6.17 8.58, -27.86 42.47, -33.11 51.02 M0.96 -0.96 C-4.46 7.73, -28.35 43.3, -33.93 52.21" stroke="#c92a2a" stroke-width="4" fill="none"></path></g><g transform="translate(1282.666666666667 1429.8333333333335) rotate(0 -16.488565301482367 25.624332150056375)"><path d="M-27.05 23.37 C-29.76 31.07, -30.68 35.23, -35.03 53.24 M-28.1 23.39 C-28.26 29.6, -29.73 34.68, -33.69 51.84" stroke="#c92a2a" stroke-width="4" fill="none"></path></g><g transform="translate(1282.666666666667 1429.8333333333335) rotate(0 -16.488565301482367 25.624332150056375)"><path d="M-9.86 34.58 C-16.33 39.69, -21.03 41.39, -35.03 53.24 M-10.91 34.59 C-14.68 38.49, -19.74 41.24, -33.69 51.84" stroke="#c92a2a" stroke-width="4" fill="none"></path></g></g><g stroke-opacity="0.9" fill-opacity="0.9" transform="translate(514.3333333333335 543.8333333333335) rotate(0 139.5 22.5)"><text x="0" y="32" font-family="Virgil, Segoe UI Emoji" font-size="36px" fill="#c92a2a" text-anchor="start" style="white-space: pre;" direction="ltr">ANURAG YADAV</text></g><g stroke-opacity="0.9" fill-opacity="0.9" stroke-linecap="round" transform="translate(479.3333333333335 498.16666666666686) rotate(0 182.5 62.500000000000014)"><path d="M240.46 3.25 C259.49 4.39, 277.28 9.57, 293.27 13.81 C309.25 18.04, 325.37 23, 336.39 28.65 C347.41 34.3, 354.68 41.17, 359.39 47.72 C364.1 54.27, 366.62 61.14, 364.65 67.94 C362.69 74.74, 356.26 82.13, 347.61 88.52 C338.97 94.9, 326.81 101.19, 312.78 106.25 C298.74 111.31, 281.37 115.86, 263.43 118.88 C245.49 121.89, 225.2 123.48, 205.15 124.33 C185.09 125.18, 162.75 125.41, 143.11 123.99 C123.46 122.56, 104.2 119.56, 87.27 115.77 C70.35 111.98, 54.26 106.45, 41.56 101.24 C28.85 96.04, 18.08 90.87, 11.03 84.53 C3.99 78.19, -0.53 70.11, -0.7 63.23 C-0.86 56.35, 3.46 49.85, 10.04 43.24 C16.62 36.63, 26.28 29.25, 38.78 23.56 C51.27 17.86, 68.06 12.77, 85 9.08 C101.94 5.39, 121.01 2.97, 140.43 1.43 C159.85 -0.12, 183.59 -0.65, 201.54 -0.17 C219.48 0.31, 239.11 3.24, 248.11 4.3 C257.1 5.36, 256.44 5.32, 255.52 6.19 M231.74 1.02 C250.84 2.01, 269.09 7.63, 285.75 11.71 C302.42 15.8, 319.87 20.17, 331.74 25.52 C343.61 30.88, 351.37 36.99, 356.97 43.85 C362.58 50.71, 366.13 59.54, 365.36 66.7 C364.6 73.86, 360.15 80.46, 352.39 86.82 C344.63 93.18, 332.19 99.74, 318.8 104.88 C305.41 110.01, 289.26 114.43, 272.03 117.62 C254.8 120.81, 235.39 122.73, 215.4 124 C195.4 125.28, 172.15 126.62, 152.08 125.29 C132 123.95, 112.56 119.4, 94.97 116 C77.38 112.6, 59.93 109.6, 46.54 104.87 C33.15 100.14, 22.14 94.31, 14.62 87.63 C7.11 80.95, 2.59 72.01, 1.46 64.78 C0.33 57.55, 2.33 50.7, 7.85 44.24 C13.37 37.78, 22.87 31.58, 34.58 26.02 C46.28 20.45, 61.77 14.7, 78.07 10.83 C94.37 6.97, 113.01 4.59, 132.37 2.81 C151.73 1.03, 177.64 0.39, 194.24 0.17 C210.85 -0.05, 226.04 1.07, 232 1.5 C237.96 1.93, 231.11 1.78, 229.99 2.77" stroke="#c92a2a" stroke-width="4" fill="none"></path></g></svg>