<svg version="1.1" xmlns="http://www.w3.org/2000/svg" viewBox="0 0 1195.5555555555552 1258.6666666666665" width="1195.5555555555552" height="1258.6666666666665">
  <!-- svg-source:excalidraw -->
  
  <defs>
    <style>
      @font-face {
        font-family: "Virgil";
        src: url("https://excalidraw.com/Virgil.woff2");
      }
      @font-face {
        font-family: "Cascadia";
        src: url("https://excalidraw.com/Cascadia.woff2");
      }
    </style>
  </defs>
  <rect x="0" y="0" width="1195.5555555555552" height="1258.6666666666665" fill="#ffffff"></rect><g transform="translate(98.11111111111097 820.1666666666666) rotate(0 132.5 17.5)"><text x="0" y="25" font-family="Virgil, Segoe UI Emoji" font-size="28px" fill="#a61e4d" text-anchor="start" style="white-space: pre;" direction="ltr">Favourite Sequence</text></g><g transform="translate(87.66666666666652 914.2222222222222) rotate(0 71 25)"><text x="0" y="18" font-family="Virgil, Segoe UI Emoji" font-size="20px" fill="#000000" text-anchor="start" style="white-space: pre;" direction="ltr">1st test case:</text><text x="0" y="43" font-family="Virgil, Segoe UI Emoji" font-size="20px" fill="#000000" text-anchor="start" style="white-space: pre;" direction="ltr"></text></g><g transform="translate(248.66666666666652 894.7222222222222) rotate(0 169.5 52.5)"><text x="0" y="25" font-family="Virgil, Segoe UI Emoji" font-size="28px" fill="#364fc7" text-anchor="start" style="white-space: pre;" direction="ltr">n = 7</text><text x="0" y="60" font-family="Virgil, Segoe UI Emoji" font-size="28px" fill="#364fc7" text-anchor="start" style="white-space: pre;" direction="ltr">a = [3, 4, 5 ,2 , 9, 1, 1]</text><text x="0" y="95" font-family="Virgil, Segoe UI Emoji" font-size="28px" fill="#364fc7" text-anchor="start" style="white-space: pre;" direction="ltr"></text></g><g transform="translate(120.66666666666652 1069.7222222222222) rotate(0 37.5 12.5)"><text x="0" y="18" font-family="Virgil, Segoe UI Emoji" font-size="20px" fill="#000000" text-anchor="start" style="white-space: pre;" direction="ltr">Output:</text></g><g stroke-linecap="round" transform="translate(77.11111111111097 798.1666666666666) rotate(0 150 37.499999999999986)"><path d="M0.81 0.02 C94.9 -0.38, 190.26 -1.54, 299.53 -1.28 M0.66 -0.45 C83.46 -1.6, 166.12 -1.65, 300.73 -0.28 M301.31 -0.09 C298.81 21.72, 298.83 44.73, 298.07 74.28 M300.68 -0.17 C300.52 25.38, 300.55 49.59, 300.54 75.48 M298.63 76.45 C233.68 74.13, 167.3 75.92, 0.06 74.42 M300.42 75.32 C236.48 74.67, 172.81 74.78, -0.72 74.97 M0.58 75.9 C1.3 47.24, 0.81 18.96, 1.7 1.81 M-0.05 75.54 C0.42 56.74, -0.45 39.48, -0.4 -0.88" stroke="#a61e4d" stroke-width="1" fill="none"></path></g><g transform="translate(257.6666666666665 1076.7222222222222) rotate(0 222 22.5)"><text x="0" y="32" font-family="Virgil, Segoe UI Emoji" font-size="36px" fill="#e67700" text-anchor="start" style="white-space: pre;" direction="ltr">[3,  1,  4,  1,  5,  9,  2]</text></g><g stroke-linecap="round"><g transform="translate(333.6666666666665 970.7222222222222) rotate(0 -25.722944615501916 50.05822279598564)"><path d="M-0.01 1.11 C-8.51 17.47, -41.98 81.73, -50.32 97.96 M-1.47 0.64 C-10.22 17.23, -43.21 83.52, -51.44 99.47" stroke="#5c940d" stroke-width="2" fill="none"></path></g></g><g stroke-linecap="round"><g transform="translate(566.6666666666665 965.7222222222222) rotate(0 -105.68040155338122 49.820228109136224)"><path d="M0.88 -1.11 C-34.38 15.65, -176.26 83.72, -211.88 100.75 M-0.11 0.92 C-35.41 17.33, -176.67 82.63, -212.25 99.03" stroke="#862e9c" stroke-width="2" fill="none"></path></g></g><g stroke-linecap="round"><g transform="translate(379.6666666666665 974.7222222222222) rotate(0 15.454394454099258 48.06469382431359)"><path d="M-0.23 0.57 C4.94 16.39, 25.06 79.27, 30.35 95.2 M-1.81 -0.18 C3.81 15.76, 27.25 80.03, 32.72 96.31" stroke="#5c940d" stroke-width="2" fill="none"></path></g></g><g stroke-linecap="round"><g transform="translate(422.6666666666665 973.7222222222222) rotate(0 53.75346613315867 46.54544452694245)"><path d="M0.79 -0.8 C18.18 14.43, 87.78 76.95, 105.37 92.57 M-0.25 1.4 C17.45 17.3, 90.09 78.41, 107.76 93.89" stroke="#5c940d" stroke-width="2" fill="none"></path></g></g><g stroke-linecap="round"><g transform="translate(459.6666666666665 970.7222222222222) rotate(0 102.96069201308302 54.597557522077125)"><path d="M0.07 0.48 C34.68 18.35, 172.6 89.91, 207.28 107.98 M-1.36 -0.31 C33.15 17.69, 171.58 91.61, 206.48 109.51" stroke="#5c940d" stroke-width="2" fill="none"></path></g></g><g stroke-linecap="round"><g transform="translate(533.6666666666665 969.7222222222222) rotate(0 -27.86566766139117 44.66631698545069)"><path d="M-0.96 0.81 C-10.11 15.49, -46.59 73.18, -55.69 87.74 M0.74 0.19 C-8.48 15.09, -47 74.24, -56.48 89.15" stroke="#862e9c" stroke-width="2" fill="none"></path></g></g><g stroke-linecap="round"><g transform="translate(510.6666666666665 968.7222222222222) rotate(0 42.07173292654568 51.380097285779215)"><path d="M1.06 -0.48 C15.13 17.14, 70.2 86.98, 83.98 104.54 M0.16 -1.78 C14.19 15.58, 69.67 85.24, 83.55 102.7" stroke="#862e9c" stroke-width="2" fill="none"></path></g></g><g transform="translate(232.66666666666652 1182.2222222222222) rotate(0 172.5 17.5)"><text x="0" y="25" font-family="Virgil, Segoe UI Emoji" font-size="28px" fill="#862e9c" text-anchor="start" style="white-space: pre;" direction="ltr">[0   0  0  0  0  0  0]</text></g><g transform="translate(841.6666666666665 1076.2222222222222) rotate(0 114.00000000000006 17.5)"><text x="0" y="25" font-family="Virgil, Segoe UI Emoji" font-size="28px" fill="#862e9c" text-anchor="start" style="white-space: pre;" direction="ltr">odd = n+1/2 = 4</text></g><g transform="translate(810.6666666666665 829.2222222222222) rotate(0 82.50000000000006 17.5)"><text x="0" y="25" font-family="Virgil, Segoe UI Emoji" font-size="28px" fill="#862e9c" text-anchor="start" style="white-space: pre;" direction="ltr">[9, 2 , 7, 1]</text></g><g transform="translate(837.6666666666665 1129.2222222222222) rotate(0 108.00000000000006 17.5)"><text x="0" y="25" font-family="Virgil, Segoe UI Emoji" font-size="28px" fill="#862e9c" text-anchor="start" style="white-space: pre;" direction="ltr">even = n/2 = 2</text></g><g transform="translate(371.8888888888888 10) rotate(0 135 17.5)"><text x="0" y="25" font-family="Virgil, Segoe UI Emoji" font-size="28px" fill="#862e9c" text-anchor="start" style="white-space: pre;" direction="ltr">DAY 36 Codeforces</text></g><g transform="translate(56.8888888888888 115) rotate(0 101.5 12.5)"><text x="0" y="18" font-family="Virgil, Segoe UI Emoji" font-size="20px" fill="#862e9c" text-anchor="start" style="white-space: pre;" direction="ltr">Explanation of Tram</text></g><g transform="translate(56.8888888888888 160.5) rotate(0 58.5 12.5)"><text x="0" y="18" font-family="Virgil, Segoe UI Emoji" font-size="20px" fill="#000000" text-anchor="start" style="white-space: pre;" direction="ltr">Test Case1:</text></g><g transform="translate(218.8888888888888 162.5) rotate(0 104 12.5)"><text x="0" y="18" font-family="Virgil, Segoe UI Emoji" font-size="20px" fill="#364fc7" text-anchor="start" style="white-space: pre;" direction="ltr">Number of Stops = 4</text></g><g transform="translate(216.8888888888888 219.5) rotate(0 93 25)"><text x="0" y="18" font-family="Virgil, Segoe UI Emoji" font-size="20px" fill="#c92a2a" text-anchor="start" style="white-space: pre;" direction="ltr">At Stop1: 0 exists</text><text x="0" y="43" font-family="Virgil, Segoe UI Emoji" font-size="20px" fill="#c92a2a" text-anchor="start" style="white-space: pre;" direction="ltr">          3 enters</text></g><g transform="translate(219.8888888888888 296.5) rotate(0 97 25)"><text x="0" y="18" font-family="Virgil, Segoe UI Emoji" font-size="20px" fill="#c92a2a" text-anchor="start" style="white-space: pre;" direction="ltr">At Stop2: 2 exits</text><text x="0" y="43" font-family="Virgil, Segoe UI Emoji" font-size="20px" fill="#c92a2a" text-anchor="start" style="white-space: pre;" direction="ltr">           5 enters</text></g><g transform="translate(458.8888888888888 302.5) rotate(0 0.00004999999998744897 0.00004999999998744897)" stroke="none" fill="#c92a2a"><path d="M 1.8561553006146871 -1.8561553006146871 Q 1.8561553006146871 -1.8561553006146871 2.224418597338462 -1.1333978856726465 2.5926818940622365 -0.41064047073060594 2.224418597338462 -1.1333978856726465 1.8561553006146871 -1.8561553006146871 2.224418597338462 -1.1333978856726465 2.5926818940622365 -0.41064047073060594 2.465787010028351 0.39054229554285214 2.3388921259944655 1.1917250618163102 1.7653085939053876 1.765308593905388 1.19172506181631 2.338892125994466 0.39054229554285225 2.465787010028351 -0.4106404707306055 2.5926818940622365 -1.1333978856726463 2.224418597338462 -1.856155300614687 1.8561553006146874 -2.224418597338462 1.1333978856726468 -2.5926818940622365 0.41064047073060617 -2.465787010028351 -0.3905422955428519 -2.338892125994466 -1.19172506181631 -1.7653085939053883 -1.7653085939053876 -1.1917250618163107 -2.3388921259944655 -0.3905422955428537 -2.465787010028351 0.4106404707306033 -2.592681894062237 1.1333978856726452 -2.2244185973384623 Z"></path></g><g transform="translate(413.8888888888888 256.5) rotate(0 22 27)" stroke="none" fill="#c92a2a"><path d="M 1.9278108703857675 -2.00783564987111 Q 1.9278108703857675 -2.00783564987111 3.690146128922752 -1.0414956456202824 5.452481387459736 -0.07515564136945518 3.690146128922752 -1.0414956456202824 1.9278108703857675 -2.00783564987111 3.690146128922752 -1.0414956456202824 5.452481387459736 -0.07515564136945518 8.221160279486767 1.055990108743916 10.9898391715138 2.187135858857287 13.94325848323054 3.550666295059403 16.89667779494728 4.9141967312615185 19.468382546309527 5.74674315570368 22.040087297671775 6.579289580145842 24.63518329282182 8.096633515335956 27.23027928797187 9.61397745052607 29.545780515440214 11.668292448713563 31.861281742908556 13.722607446901057 34.271732167407265 16.163104291684515 36.68218259190597 18.603601136467972 38.92252596798727 21.12139999790338 41.162869344068575 23.63919885933879 42.4941046801054 26.29027318182322 43.82534001614223 28.94134750430765 44.54450955517546 31.38423361647884 45.26367909420869 33.82711972865003 45.56025814701591 35.735448312805346 45.856837199823126 37.64377689696067 45.951839174728285 39.61613532457318 46.046841149633444 41.5884937521857 45.49285708078362 43.5859962665006 44.93887301193381 45.58349878081551 42.916274809972975 47.59251821725515 40.893676608012136 49.60153765369479 39.21178934484002 50.39196223691226 37.529902081667906 51.182386820129736 35.51389500539149 51.90010294885943 33.49788792911507 52.61781907758912 31.62223684276903 52.942797939222885 29.746585756422988 53.267776800856645 26.842387855434787 53.47536037752444 23.938189954446585 53.682943954192226 21.606525260464835 54.01190223489364 19.274860566483085 54.34086051559506 17.587544441383677 55.21599730448004 15.900228316284267 56.091134093365014 12.529328944480902 56.28322765244944 9.158429572677537 56.475321211533874 8.144749923753166 55.98895257844029 7.131070274828794 55.50258394534671 6.9287248163456585 54.3966195728048 6.726379357862523 53.2906552002629 7.502187654057405 52.47688473787442 8.277995950252286 51.663114275485945 9.392358758954424 51.8124340949415 10.506721567656562 51.96175391439706 11.040925320778353 52.95106035228744 11.575129073900142 53.94036679017782 11.088760440806558 54.95404643910219 10.602391807712975 55.967726088026566 9.496427435171071 56.1700715465097 8.390463062629166 56.37241700499283 7.57669260024069 55.59660870879796 6.762922137852213 54.82080041260308 6.912241957307771 53.70643760390094 7.0615617767633285 52.5920747951988 8.050868214653706 52.05787104207701 9.040174652544083 51.52366728895522 12.22203900296884 51.6323297212451 15.403903353393597 51.740992153534975 17.058355344893773 51.121120943387105 18.71280733639395 50.501249733239234 21.047031766112028 50.17661214488839 23.381256195830105 49.85197455653754 27.022832908814202 49.29698766962392 30.664409621798296 48.74200078271029 33.98164083091659 47.76399767253924 37.29887204003488 46.78599456236819 39.21372451620971 44.45781767719723 41.12857699238453 42.129640792026265 41.53873296292418 40.04537184578528 41.94888893346383 37.96110289954431 41.954057186201474 36.27675117845709 41.95922543893912 34.592399457369865 41.51275177769407 32.414564348570906 41.06627811644902 30.23672923977194 39.98494065137272 27.904918678375754 38.903603186296415 25.57310811697957 36.743655357925206 23.159367442892517 34.58370752955399 20.745626768805465 32.14299313624264 18.459965471499082 29.702278742931288 16.174304174192695 27.613120699159396 14.323986604020813 25.523962655387503 12.47366903384893 23.250421565576616 11.122482695601544 20.976880475765725 9.771296357354158 18.324036887284223 8.87972168804632 15.67119329880272 7.9881470187384815 12.72641925114446 6.955193079940598 9.7816452034862 5.922239141142713 6.039239704388945 4.565186044207485 2.29683420529169 3.2081329472722575 1.2406729363723255 2.9080586229219705 0.18451166745296121 2.607984298571684 -0.5995749834139501 2.4131705770919734 -1.3836616342808614 2.218356855612263 -1.9034924274647413 1.5998746742987817 -2.4233232206486215 0.9813924929853005 -2.4803404615520455 0.17548102366362306 -2.5373577024554694 -0.6304304456580544 -2.1097827429980702 -1.315940413630415 -1.6822077835406706 -2.0014503816027753 0.12280154342254845 -2.0046430157369426 Z"></path></g><g transform="translate(487.8888888888888 248.5) rotate(0 201 50)"><text x="0" y="18" font-family="Virgil, Segoe UI Emoji" font-size="20px" fill="#c92a2a" text-anchor="start" style="white-space: pre;" direction="ltr">2exits out of three persons in the tram</text><text x="0" y="43" font-family="Virgil, Segoe UI Emoji" font-size="20px" fill="#c92a2a" text-anchor="start" style="white-space: pre;" direction="ltr">Then,</text><text x="0" y="68" font-family="Virgil, Segoe UI Emoji" font-size="20px" fill="#c92a2a" text-anchor="start" style="white-space: pre;" direction="ltr">        person left = 3 - 2</text><text x="0" y="93" font-family="Virgil, Segoe UI Emoji" font-size="20px" fill="#c92a2a" text-anchor="start" style="white-space: pre;" direction="ltr">                    = 1</text></g><g transform="translate(222.8888888888888 379.5) rotate(0 103 25)"><text x="0" y="18" font-family="Virgil, Segoe UI Emoji" font-size="20px" fill="#c92a2a" text-anchor="start" style="white-space: pre;" direction="ltr">At Stop3:  4 exits</text><text x="0" y="43" font-family="Virgil, Segoe UI Emoji" font-size="20px" fill="#c92a2a" text-anchor="start" style="white-space: pre;" direction="ltr">            2 enters</text></g><g transform="translate(218.8888888888888 456.5) rotate(0 98 25)"><text x="0" y="18" font-family="Virgil, Segoe UI Emoji" font-size="20px" fill="#c92a2a" text-anchor="start" style="white-space: pre;" direction="ltr">At Stop4: 4 exits</text><text x="0" y="43" font-family="Virgil, Segoe UI Emoji" font-size="20px" fill="#c92a2a" text-anchor="start" style="white-space: pre;" direction="ltr">           0 enters</text></g><g transform="translate(425.8888888888888 341.5) rotate(0 65.5 19.5)" stroke="none" fill="#c92a2a"><path d="M 6.056823353077212 -0.5181526130389629 Q 6.056823353077212 -0.5181526130389629 11.772234292402706 2.2631356102953966 17.487645231728198 5.0444238336297555 11.772234292402706 2.2631356102953966 6.056823353077212 -0.5181526130389629 11.772234292402706 2.2631356102953966 17.487645231728198 5.0444238336297555 26.12748195537268 8.345888555103187 34.767318679017166 11.647353276576618 45.50190054685994 14.892110227802299 56.23648241470272 18.136867179027977 70.09934400555761 22.518567219874598 83.9622055964125 26.900267260721222 94.96140224056623 29.479561525119287 105.96059888471996 32.05885578951735 112.55513366985318 33.26962214592186 119.1496684549864 34.480388502326356 122.50619631718952 35.65574446834531 125.86272417939264 36.83110043436427 128.5969136897381 37.20593056112666 131.33110320008356 37.58076068788905 131.79072337064315 38.08324540406034 132.25034354120274 38.58573012023164 132.11398282431756 39.25292375483971 131.97762210743238 39.92011738944778 131.35770030011852 40.20196583096856 130.73777849280467 40.48381427248934 130.14537741786268 40.14795335249633 129.55297634292072 39.81209243250333 129.47648891964835 39.13541579979601 129.40000149637598 38.45873916708868 129.90248621254727 37.99911899652909 130.40497092871857 37.53949882596951 131.07216456332662 37.67585954285468 131.7393581979347 37.81222025973986 132.0212066394555 38.43214206705371 132.3030550809763 39.05206387436756 131.9671941609833 39.64446494930955 131.63133324099027 40.23686602425153 130.95465660828296 40.313353447523895 130.27797997557562 40.389840870796256 127.54379046523016 40.015010744033866 124.8096009548847 39.640180617271476 121.67461651850384 38.522458160744044 118.53963208212298 37.40473570421661 111.91811767292026 36.193188370435564 105.29660326371754 34.98164103665452 94.18160313052752 32.3716805403104 83.0666029973375 29.761720043966278 69.22267747881739 25.386401041844152 55.37875196029728 21.011082039722023 44.53618539064006 17.7277628190727 33.693618820982834 14.444443598423382 25.02486179462732 11.133603632396813 16.356104768271802 7.8227636663702445 10.587140707597294 5.904833139704603 4.818176646922788 3.986902613038963 2.0994266469227876 3.119715113038963 -0.6193233530772124 2.252527613038963 -1.2221844910279112 1.855415799473605 -1.82504562897861 1.4583039859082467 -2.079354067304109 0.7826808939991374 -2.333662505629608 0.10705780209002802 -2.1422810645154735 -0.5890115106378471 -1.950899623401339 -1.285080823365722 -1.3869295085372337 -1.735721537976094 -0.8229593936731286 -2.186362252586466 2.616931979702042 -1.3522574328127144 Z"></path></g><g transform="translate(574.8888888888888 368.5) rotate(0 99.5 25)"><text x="0" y="18" font-family="Virgil, Segoe UI Emoji" font-size="20px" fill="#c92a2a" text-anchor="start" style="white-space: pre;" direction="ltr">5new enters = 1 + 5</text><text x="0" y="43" font-family="Virgil, Segoe UI Emoji" font-size="20px" fill="#c92a2a" text-anchor="start" style="white-space: pre;" direction="ltr">Total person = 6</text></g><g stroke-linecap="round" transform="translate(724.8888888888888 387.5) rotate(0 19 18.5)"><path d="M14.55 1.13 C18.16 -0.04, 23.99 0.77, 27.6 2.33 C31.2 3.89, 34.68 7.02, 36.19 10.49 C37.69 13.95, 37.6 19.34, 36.62 23.12 C35.64 26.9, 33.51 30.98, 30.29 33.18 C27.08 35.37, 21.65 36.57, 17.33 36.29 C13.01 36, 7.38 34.14, 4.39 31.46 C1.4 28.78, -0.62 24.15, -0.62 20.21 C-0.62 16.26, 1.42 11.04, 4.42 7.79 C7.41 4.54, 14.46 1.8, 17.37 0.7 C20.27 -0.4, 21.89 0.93, 21.87 1.18 M24.3 0.73 C27.99 1.61, 31.47 4.23, 33.8 7.56 C36.12 10.89, 38.47 16.56, 38.24 20.71 C38.01 24.86, 35.38 29.95, 32.43 32.47 C29.48 34.98, 24.32 35.35, 20.54 35.78 C16.75 36.2, 13.25 37.23, 9.71 35.02 C6.18 32.82, 0.45 26.68, -0.69 22.52 C-1.83 18.37, 0.89 13.5, 2.86 10.1 C4.82 6.71, 7.75 3.65, 11.11 2.14 C14.46 0.63, 21.11 1.25, 22.98 1.03 C24.86 0.8, 22.15 0.65, 22.38 0.8" stroke="#c92a2a" stroke-width="1" fill="none"></path></g><g stroke-linecap="round" transform="translate(335.8888888888888 369.5) rotate(0 53.5 32)"><path d="M1.52 1.78 C41.78 0.78, 80.94 -2.51, 106.73 1.4 M-0.72 -0.05 C31.54 0.26, 60.73 1.56, 106.46 -0.52 M108.04 -1.13 C105.64 14.72, 106.85 29.05, 107.65 63.2 M106.8 0.05 C107.25 19.13, 106.49 38.21, 107.04 64.07 M106.25 62.64 C66.71 64.14, 27.17 65.25, -0.11 65.76 M107.78 63.4 C74.15 63.95, 41.14 63.74, 0.26 64.75 M1.84 64.99 C0.19 46.21, 0.84 25.15, -1.57 -1.81 M0.66 64.61 C1.47 42.78, 0.58 23.34, -0.33 0.77" stroke="#c92a2a" stroke-width="1" fill="none"></path></g><g stroke-linecap="round"><g transform="translate(455.8888888888888 425.5) rotate(0 57.01362993121148 14.220655044498855)"><path d="M-0.6 -1.06 C18.61 3.79, 95.63 23.33, 114.62 28.32 M1.29 1 C20.45 6.07, 95.5 24.65, 114 29.5" stroke="#c92a2a" stroke-width="1" fill="none"></path></g></g><g transform="translate(584.8888888888888 443.5) rotate(0 154.5 37.5)"><text x="0" y="18" font-family="Virgil, Segoe UI Emoji" font-size="20px" fill="#c92a2a" text-anchor="start" style="white-space: pre;" direction="ltr">4 exits, and 2 enters</text><text x="0" y="43" font-family="Virgil, Segoe UI Emoji" font-size="20px" fill="#c92a2a" text-anchor="start" style="white-space: pre;" direction="ltr">So, total person = (6 - 4) + 2</text><text x="0" y="68" font-family="Virgil, Segoe UI Emoji" font-size="20px" fill="#c92a2a" text-anchor="start" style="white-space: pre;" direction="ltr">                 = 4</text></g><g stroke-linecap="round" transform="translate(320.8888888888888 449.5) rotate(0 57 34.5)"><path d="M-0.61 1.48 C44.54 0.23, 89.02 0.73, 115.44 -0.33 M-0.94 0.03 C24.59 1.67, 49.73 0.66, 113.75 -0.43 M114.91 -0.11 C115.84 14.08, 114.24 29.2, 113.86 67.14 M113.35 -0.64 C114.46 16.18, 115.56 30.63, 114.74 68.57 M115.89 70.32 C84.85 67.98, 56.11 68.12, 1.32 69.76 M114.48 68.25 C76.39 70.45, 39.66 70.72, 0.28 69.95 M-1.53 67.21 C0.93 49.94, 1.7 32.97, -0.78 -0.8 M0.18 68.56 C0.57 50.33, 0.16 33.04, 0.2 -0.8" stroke="#c92a2a" stroke-width="1" fill="none"></path></g><g stroke-linecap="round"><g transform="translate(451.8888888888888 494.5) rotate(0 61.23627723578829 25.804611103748904)"><path d="M0.01 0.54 C20.5 9.02, 103.41 42.11, 123.92 50.89 M-1.44 -0.23 C18.8 8.37, 101.77 43.22, 122.93 51.84" stroke="#c92a2a" stroke-width="1" fill="none"></path></g></g><g transform="translate(597.8888888888888 535.5) rotate(0 161.5 37.5)"><text x="0" y="18" font-family="Virgil, Segoe UI Emoji" font-size="20px" fill="#c92a2a" text-anchor="start" style="white-space: pre;" direction="ltr">4 exits and 0 enters</text><text x="0" y="43" font-family="Virgil, Segoe UI Emoji" font-size="20px" fill="#c92a2a" text-anchor="start" style="white-space: pre;" direction="ltr">==&gt; Total Person = (4 - 4) + 0</text><text x="0" y="68" font-family="Virgil, Segoe UI Emoji" font-size="20px" fill="#c92a2a" text-anchor="start" style="white-space: pre;" direction="ltr">                   = 0</text></g><g stroke-linecap="round"><g transform="translate(784.8888888888888 396.5) rotate(0 54.417778380108075 1.1295243406621722)"><path d="M0.52 1.09 C18.96 1.49, 91.32 1.83, 109.51 1.94 M-0.67 0.62 C17.67 0.73, 90.07 0.44, 108.3 0.32" stroke="#5c940d" stroke-width="1" fill="none"></path></g><g transform="translate(784.8888888888888 396.5) rotate(0 54.417778380108075 1.1295243406621722)"><path d="M81.98 9.9 C87.51 7.87, 92.98 8.22, 109.62 2.21 M80.54 10.69 C85.49 8.09, 92.63 6.5, 107.95 0.68" stroke="#5c940d" stroke-width="1" fill="none"></path></g><g transform="translate(784.8888888888888 396.5) rotate(0 54.417778380108075 1.1295243406621722)"><path d="M81.87 -10.63 C87.35 -8.47, 92.84 -3.93, 109.62 2.21 M80.43 -9.83 C85.28 -7.87, 92.45 -4.92, 107.95 0.68" stroke="#5c940d" stroke-width="1" fill="none"></path></g></g><g transform="translate(916.8888888888888 359.5) rotate(0 76 25)"><text x="0" y="18" font-family="Virgil, Segoe UI Emoji" font-size="20px" fill="#5c940d" text-anchor="start" style="white-space: pre;" direction="ltr">Maximum no of </text><text x="0" y="43" font-family="Virgil, Segoe UI Emoji" font-size="20px" fill="#5c940d" text-anchor="start" style="white-space: pre;" direction="ltr">person = 6</text></g><g stroke-linecap="round" transform="translate(901.8888888888888 330.5) rotate(0 90 48)"><path d="M0.86 -0.66 C72.01 0.11, 141.91 0.46, 178.47 -1.09 M-0.6 0.11 C43.28 -0.43, 89.18 0.03, 180.99 -0.64 M179.01 2 C180.06 26.81, 178.99 53.46, 181.23 95.48 M180.06 -0.56 C179.32 27.53, 180.76 54.52, 179.38 96.68 M181.14 94.82 C112.16 96.07, 40.34 93.39, 0.75 97.63 M180.86 96.31 C138.71 97.27, 99.12 97.41, 0.27 95.96 M-0.15 97.3 C2.57 65.3, -0.11 36.08, 1.92 1.06 M0.56 95.8 C-1.07 73.79, 0.03 50.73, -0.98 -0.57" stroke="#5c940d" stroke-width="1" fill="none"></path></g><g stroke-linecap="round"><g transform="translate(1032.8888888888887 324.5) rotate(0 2.0508385013462203 -27.63470151287038)"><path d="M-0.7 0.03 C-0.17 -8.89, 1.73 -44.69, 2.41 -53.8 M1.13 -1.01 C2.12 -10.19, 4.53 -45.99, 4.8 -55.29" stroke="#5c940d" stroke-width="1" fill="none"></path></g><g transform="translate(1032.8888888888887 324.5) rotate(0 2.0508385013462203 -27.63470151287038)"><path d="M12.92 -29.95 C13.04 -34.61, 9.72 -41.89, 5.82 -54.07 M12.94 -28.9 C10.16 -36.91, 9.18 -42.69, 5.62 -55.91" stroke="#5c940d" stroke-width="1" fill="none"></path></g><g transform="translate(1032.8888888888887 324.5) rotate(0 2.0508385013462203 -27.63470151287038)"><path d="M-5.9 -30.93 C-1.34 -35.24, -0.22 -42.29, 5.82 -54.07 M-5.87 -29.88 C-3.51 -37.63, 0.68 -43.15, 5.62 -55.91" stroke="#5c940d" stroke-width="1" fill="none"></path></g></g><g transform="translate(994.8888888888888 232.5) rotate(0 62 17.5)"><text x="0" y="25" font-family="Virgil, Segoe UI Emoji" font-size="28px" fill="#a61e4d" text-anchor="start" style="white-space: pre;" direction="ltr">OUTPUT</text></g><g stroke-linecap="round" transform="translate(969.8888888888888 193.5) rotate(0 78 43)"><path d="M93 1.69 C104.77 2.46, 118.72 5.9, 128.16 9.99 C137.6 14.08, 144.95 20.02, 149.63 26.23 C154.31 32.45, 157.42 40.43, 156.24 47.28 C155.06 54.13, 149.65 61.78, 142.54 67.33 C135.43 72.87, 124.55 77.47, 113.56 80.57 C102.56 83.67, 88.84 85.8, 76.56 85.91 C64.28 86.02, 50.76 84.69, 39.86 81.24 C28.95 77.79, 17.81 71.02, 11.14 65.22 C4.46 59.41, 0.35 53.29, -0.19 46.44 C-0.73 39.58, 2.56 30.45, 7.92 24.08 C13.27 17.72, 21.97 12.23, 31.93 8.25 C41.9 4.27, 57.37 1.37, 67.72 0.22 C78.07 -0.93, 89.16 1.06, 94.05 1.36 C98.93 1.65, 97.35 1.43, 97.04 1.98 M81.59 0.32 C93.08 0.03, 106.06 3.15, 116.79 6.72 C127.51 10.29, 139.44 16, 145.92 21.73 C152.4 27.46, 155.28 34.22, 155.66 41.11 C156.03 48, 153.61 56.89, 148.19 63.08 C142.78 69.26, 133.13 74.32, 123.18 78.21 C113.23 82.1, 100.84 85.51, 88.49 86.41 C76.13 87.31, 60.63 86.01, 49.04 83.59 C37.45 81.17, 27.03 77.28, 18.97 71.89 C10.9 66.5, 3.28 57.98, 0.65 51.24 C-1.99 44.49, -0.49 37.67, 3.16 31.42 C6.8 25.16, 13.7 18.54, 22.5 13.7 C31.31 8.86, 46.33 4.57, 56.01 2.38 C65.7 0.18, 76.48 0.54, 80.62 0.54 C84.75 0.54, 80.73 1.55, 80.84 2.35" stroke="#a61e4d" stroke-width="1" fill="none"></path></g><g transform="translate(630.8888888888888 94) rotate(0 107.5 37.5)"><text x="0" y="18" font-family="Virgil, Segoe UI Emoji" font-size="20px" fill="#a61e4d" text-anchor="start" style="white-space: pre;" direction="ltr">Initial = 0, 0</text><text x="0" y="43" font-family="Virgil, Segoe UI Emoji" font-size="20px" fill="#a61e4d" text-anchor="start" style="white-space: pre;" direction="ltr">Stop 1 = 1 person left</text><text x="0" y="68" font-family="Virgil, Segoe UI Emoji" font-size="20px" fill="#a61e4d" text-anchor="start" style="white-space: pre;" direction="ltr">Stop2 = 6person left</text></g><g stroke-linecap="round" transform="translate(15.555555555555543 84.22222222222217) rotate(0 577.2222222222223 270.5555555555556)"><path d="M0.09 0.52 C251.66 -3.71, 503.32 -2.38, 1154.73 0.47 M0.37 0.03 C450.94 -1.65, 901.8 -0.99, 1154.37 0.22 M1155.23 -0.29 C1155.48 213.45, 1155.12 427.61, 1153.72 541.61 M1154.54 -0.34 C1155.72 160.82, 1155.7 322.62, 1154.18 541.04 M1154.75 541.18 C795.87 540.87, 437.45 540.92, 0.12 541.58 M1154.24 540.86 C784.28 541.46, 413.83 541.4, 0.15 540.93 M-0.19 541.01 C2.04 330.67, 2.92 120.04, 0.5 0.38 M-0.3 541.47 C-1.08 331.03, -0.9 121.26, -0.34 0.19" stroke="#a61e4d" stroke-width="1" fill="none"></path></g><g stroke-linecap="round" transform="translate(25.555555555555543 104.22222222222223) rotate(0 130.55555555555554 21.111111111111114)"><path d="M0.62 -0.74 C89.17 -1.98, 175.35 -0.79, 260.91 -0.18 M0.5 0.38 C79.48 0.84, 158.2 -0.18, 261.83 0.15 M259.42 0.94 C259.55 11.2, 261.45 22.7, 259.84 43.02 M261.45 -0.7 C261.82 11.07, 261.15 23.04, 261.32 42.58 M261.75 40.89 C159.89 39.68, 56.69 40.87, -0.09 41.69 M260.59 41.9 C166.26 43.03, 70.13 43.07, -0.45 42.73 M-0.21 41.04 C-1.51 29.41, 0.43 19.06, 1.05 1.16 M-0.55 42.12 C0.07 30.05, -0.42 19.67, -0.01 -0.28" stroke="#000000" stroke-width="1" fill="none"></path></g><g stroke-linecap="round" transform="translate(10 780.8888888888888) rotate(0 587.7777777777776 233.8888888888889)"><path d="M-0.73 -0.12 C382 -2.32, 763.43 -1.88, 1175.32 0.34 M0.21 -0.15 C407.24 3.38, 814.68 3.46, 1175.92 -0.02 M1176.01 -0.6 C1176.18 107.15, 1176.36 213.85, 1176.14 468.55 M1175.74 -0.33 C1173.82 171.12, 1173.92 343.14, 1175.45 468.17 M1175.1 467.34 C777.49 465.11, 379.2 465.45, -0.18 467.64 M1175.56 467.6 C834.53 467.66, 493.89 467.19, -0.02 467.42 M-0.72 467.25 C-2.06 286.96, -1.91 107.33, -0.39 -0.29 M0.25 468.04 C0.59 295.72, 0.72 122.9, 0.11 0.44" stroke="#000000" stroke-width="1" fill="none"></path></g><g transform="translate(351.1111111111111 655.2222222222222) rotate(0 139.5 22.5)"><text x="0" y="32" font-family="Virgil, Segoe UI Emoji" font-size="36px" fill="#e67700" text-anchor="start" style="white-space: pre;" direction="ltr">ANURAG YADAV</text></g><g stroke-linecap="round" transform="translate(325.5555555555556 622) rotate(0 167.2222222222222 57.77777777777777)"><path d="M130.06 1.19 C147.39 -0.86, 169.88 0.58, 189.08 1.45 C208.27 2.33, 228.15 3.38, 245.24 6.43 C262.33 9.48, 278.84 14.78, 291.59 19.74 C304.34 24.7, 314.78 30.13, 321.75 36.19 C328.73 42.24, 332.78 49.49, 333.45 56.08 C334.11 62.68, 331.64 69.43, 325.76 75.74 C319.88 82.05, 310.26 88.82, 298.16 93.93 C286.06 99.04, 269.73 103, 253.16 106.38 C236.58 109.77, 217.5 112.9, 198.7 114.25 C179.89 115.6, 159.25 115.5, 140.33 114.47 C121.42 113.45, 101.93 111.43, 85.19 108.1 C68.45 104.76, 52.33 99.6, 39.9 94.46 C27.47 89.32, 17.4 83.24, 10.59 77.27 C3.77 71.3, -1.04 65.01, -0.99 58.61 C-0.94 52.21, 4.29 45.21, 10.89 38.87 C17.49 32.54, 26.41 25.68, 38.62 20.61 C50.83 15.54, 66.37 11.76, 84.17 8.46 C101.97 5.16, 132.9 2, 145.44 0.79 C157.99 -0.42, 159.09 0.17, 159.46 1.21 M127.24 2.61 C144.4 -0.13, 167.31 -1.1, 186.42 -0.62 C205.54 -0.15, 225.15 2.52, 241.93 5.47 C258.72 8.42, 274.2 12.04, 287.15 17.09 C300.11 22.15, 311.99 29.49, 319.67 35.8 C327.35 42.11, 331.93 48.23, 333.26 54.94 C334.59 61.66, 333.2 69.82, 327.67 76.1 C322.13 82.38, 311.8 87.61, 300.07 92.61 C288.34 97.61, 273.37 102.7, 257.29 106.09 C241.21 109.47, 222.58 111.49, 203.61 112.93 C184.64 114.37, 162.42 115.61, 143.47 114.72 C124.51 113.83, 106.65 110.8, 89.88 107.57 C73.11 104.35, 55.7 100.15, 42.87 95.37 C30.04 90.58, 20.13 84.8, 12.89 78.87 C5.65 72.93, 0.1 66.47, -0.59 59.76 C-1.28 53.04, 2.63 44.93, 8.75 38.59 C14.88 32.25, 24.08 26.95, 36.16 21.73 C48.25 16.51, 66.01 10.61, 81.25 7.25 C96.5 3.89, 119.78 2.09, 127.63 1.57 C135.48 1.04, 127.67 3.07, 128.33 4.11" stroke="#e67700" stroke-width="1" fill="none"></path></g></svg>